<?xml version="1.0" encoding="UTF-8"?>
<svg width="353px" height="67px" viewBox="0 0 353 67" version="1.1" xmlns="http://www.w3.org/2000/svg" xmlns:xlink="http://www.w3.org/1999/xlink">
    <!-- Generator: Sketch 50 (54983) - http://www.bohemiancoding.com/sketch -->
    <title>Group 2</title>
    <desc>Created with Sketch.</desc>
    <defs>
        <linearGradient x1="38.1916214%" y1="31.6097795%" x2="103.079716%" y2="107.785861%" id="linearGradient-1">
            <stop stop-color="#575CE7" offset="0%"></stop>
            <stop stop-color="#52C7C6" offset="100%"></stop>
        </linearGradient>
    </defs>
    <g id="Page-1" stroke="none" stroke-width="1" fill="none" fill-rule="evenodd">
        <g id="Group-2">
            <g id="locked" fill-rule="nonzero">
                <path d="M7.88827921,26.0008839 L7.71538706,26.0008839 C7.61713423,26.0008839 7.52143342,26.0125843 7.42318059,26.0151844 L7.42318059,17.5505966 C7.42318059,7.89776848 16.0362534,0 26.5633423,0 C37.0904313,0 45.703504,7.89776848 45.703504,17.5505966 L45.703504,26 L45.9912857,26 C50.4141429,26 54,29.5720828 54,33.9779505 L54,59.0068651 C54,63.4127328 50.4141429,66.9848156 45.9912857,66.9848156 L8.00871429,66.9848156 C3.58585714,66.9848156 0,63.4127328 0,59.0068651 L0,33.9779505 C0,29.6121433 3.52094465,26.0650274 7.88827921,26.0008839 Z M12.5272237,26 L40.5994609,26 L40.5994609,17.5505966 C40.5994609,10.7409651 34.3023477,5.20017678 26.5633423,5.20017678 C18.8243369,5.20017678 12.5272237,10.7409651 12.5272237,17.5505966 L12.5272237,26 Z" id="Combined-Shape" fill="url(#linearGradient-1)"></path>
                <path d="M27.5,54 C25.575,54 24,52.2 24,50 L24,42 C24,39.8 25.575,38 27.5,38 C29.425,38 31,39.8 31,42 L31,50 C31,52.2 29.425,54 27.5,54 Z" id="Shape" fill="#FFFFFF"></path>
            </g>
            <path d="M75.3291016,33.9394531 C75.3291016,32.0436103 75.6676398,30.287443 76.3447266,28.6708984 C77.0218133,27.0543539 77.9231715,25.7086642 79.0488281,24.6337891 C80.1744848,23.5589139 81.465162,22.7167999 82.9208984,22.1074219 C84.3766349,21.4980438 85.8831302,21.1933594 87.4404297,21.1933594 C88.9977291,21.1933594 90.4576755,21.510739 91.8203125,22.1455078 C93.1829495,22.7802766 96,24 98,23 L101.735352,21.7265625 L101.735352,42.6230469 C101.735352,47.7689059 100.546236,51.6367058 98.1679688,54.2265625 C95.7897017,56.8164192 92.4000871,58.1113281 87.9990234,58.1113281 C85.3414581,58.1113281 82.942068,57.4257881 80.8007812,56.0546875 C78.6594945,54.6835869 77.0725963,52.8554802 76.0400391,50.5703125 C76.6494171,50.2656235 77.6227147,49.7874382 78.9599609,49.1357422 C80.2972072,48.4840462 81.2705048,48.0143244 81.8798828,47.7265625 C82.2861348,48.8268284 83.094395,49.7493452 84.3046875,50.4941406 C85.51498,51.238936 86.746413,51.6113281 87.9990234,51.6113281 C92.8401935,51.6113281 95.0830096,48.7337527 94.7275391,42.9785156 C94.1689425,44.0618544 93.2041084,44.9208953 91.8330078,45.5556641 C90.4619072,46.1904329 88.9977291,46.5078125 87.4404297,46.5078125 C85.3414609,46.5078125 83.3779388,46.0000051 81.5498047,44.984375 C79.7216705,43.9687449 78.2278704,42.4876399 77.0683594,40.5410156 C75.9088484,38.5943913 75.3291016,36.3938925 75.3291016,33.9394531 Z M82.8701172,33.7871094 C82.8701172,35.5475348 83.4414005,36.9736274 84.5839844,38.0654297 C85.7265682,39.157232 87.0934165,39.703125 88.6845703,39.703125 C90.2249426,39.703125 91.5875592,39.1445368 92.7724609,38.0273438 C93.9573627,36.9101507 94.5498047,35.4967533 94.5498047,33.7871094 C94.5498047,32.0436111 93.9700579,30.6513724 92.8105469,29.6103516 C91.6510359,28.5693307 90.2757241,28.0488281 88.6845703,28.0488281 C87.0934165,28.0488281 85.7265682,28.5862576 84.5839844,29.6611328 C83.4414005,30.736008 82.8701172,32.1113197 82.8701172,33.7871094 Z M106.94043,33.7871094 C106.94043,31.2988157 107.511713,29.0898534 108.654297,27.1601562 C109.796881,25.2304591 111.328766,23.7535858 113.25,22.7294922 C115.171234,21.7053985 117.29133,21.1933594 119.610352,21.1933594 C121.319996,21.1933594 122.936516,21.5065073 124.459961,22.1328125 C125.983406,22.7591177 127.303705,23.6223903 128.420898,24.7226562 C129.538092,25.8229222 130.422523,27.1728436 131.074219,28.7724609 C131.725915,30.3720783 132.051758,32.1113187 132.051758,33.9902344 C132.051758,34.6334668 132.017904,35.378251 131.950195,36.2246094 L114.151367,36.2246094 C114.320639,37.5280013 115.001947,38.530921 116.195312,39.2333984 C117.388678,39.9358759 118.704745,40.2871094 120.143555,40.2871094 C121.193039,40.2871094 122.195959,40.0924499 123.152344,39.703125 C124.108729,39.3138001 124.874672,38.7467485 125.450195,38.0019531 L130.706055,41.5820312 C129.571934,43.274748 128.006195,44.5188762 126.008789,45.3144531 C124.011383,46.11003 121.878592,46.5078125 119.610352,46.5078125 C117.29133,46.5078125 115.171234,45.9873099 113.25,44.9462891 C111.328766,43.9052682 109.796881,42.4072363 108.654297,40.4521484 C107.511713,38.4970605 106.94043,36.2754031 106.94043,33.7871094 Z M114.25293,31.7050781 L124.764648,31.7050781 C124.595377,30.3339775 123.998703,29.297204 122.974609,28.5947266 C121.950516,27.8922491 120.846035,27.5410156 119.661133,27.5410156 C118.476231,27.5410156 117.350591,27.8837856 116.28418,28.5693359 C115.217768,29.2548862 114.540692,30.3001232 114.25293,31.7050781 Z M134.844727,27.4394531 L134.844727,21.7265625 L139.262695,21.7265625 L139.262695,12.4082031 L146.448242,12.4082031 L146.448242,21.7265625 L151.551758,21.7265625 L151.551758,27.4394531 L146.448242,27.4394531 L146.448242,46 L139.262695,46 L139.262695,27.4394531 L134.844727,27.4394531 Z M155.944336,57.9082031 L155.944336,21.7265625 L163.129883,24.7226562 C163.722334,23.6223903 164.670241,22.7591177 165.973633,22.1328125 C167.277025,21.5065073 168.698886,21.1933594 170.239258,21.1933594 C171.796557,21.1933594 173.286126,21.4938121 174.708008,22.0947266 C176.12989,22.695641 177.37825,23.5335233 178.453125,24.6083984 C179.528,25.6832736 180.387041,27.0162681 181.030273,28.6074219 C181.673506,30.1985757 181.995117,31.9251209 181.995117,33.7871094 C181.995117,35.6829522 181.673506,37.4391195 181.030273,39.0556641 C180.387041,40.6722086 179.528,42.0178983 178.453125,43.0927734 C177.37825,44.1676486 176.12989,45.0055308 174.708008,45.6064453 C173.286126,46.2073598 171.796557,46.5078125 170.239258,46.5078125 C168.681958,46.5078125 167.251634,46.1988963 165.948242,45.5810547 C164.64485,44.9632131 163.705407,44.1126356 163.129883,43.0292969 L163.129883,57.9082031 L155.944336,57.9082031 Z M163.282227,33.9394531 C163.282227,35.6829514 163.82812,37.0794218 164.919922,38.1289062 C166.011724,39.1783907 167.336255,39.703125 168.893555,39.703125 C170.467781,39.703125 171.796544,39.1699272 172.879883,38.1035156 C173.963222,37.037104 174.504883,35.6490971 174.504883,33.9394531 C174.504883,32.1959548 173.963222,30.7783258 172.879883,29.6865234 C171.796544,28.5947211 170.467781,28.0488281 168.893555,28.0488281 C167.353182,28.0488281 166.032883,28.6031846 164.932617,29.7119141 C163.832351,30.8206436 163.282227,32.2298092 163.282227,33.9394531 Z M185.77832,33.8378906 C185.77832,31.958975 186.129554,30.2112711 186.832031,28.5947266 C187.534509,26.978182 188.469721,25.6409558 189.637695,24.5830078 C190.80567,23.5250598 192.125969,22.695641 193.598633,22.0947266 C195.071296,21.4938121 196.586255,21.1933594 198.143555,21.1933594 C198.803714,21.1933594 199.510413,21.2652988 200.263672,21.4091797 C201.016931,21.5530606 201.888667,21.8831354 202.878906,22.3994141 C203.869146,22.9156927 204.652015,23.5885375 205.227539,24.4179688 L205.227539,24.5830078 L212.387695,21.7265625 L212.387695,46 L205.227539,46 L205.227539,43.2324219 C204.533525,44.2819063 203.471361,45.081703 202.041016,45.6318359 C200.61067,46.1819689 199.311529,46.4570312 198.143555,46.4570312 C196.044586,46.4570312 194.064137,45.9576873 192.202148,44.9589844 C190.34016,43.9602815 188.804043,42.4834082 187.59375,40.5283203 C186.383457,38.5732324 185.77832,36.3431115 185.77832,33.8378906 Z M193.268555,33.8378906 C193.268555,35.5136803 193.882155,36.8932238 195.109375,37.9765625 C196.336595,39.0599013 197.74576,39.6015625 199.336914,39.6015625 C200.911141,39.6015625 202.286452,39.0725964 203.462891,38.0146484 C204.639329,36.9567004 205.227539,35.5644618 205.227539,33.8378906 C205.227539,32.0943923 204.639329,30.6936902 203.462891,29.6357422 C202.286452,28.5777942 200.911141,28.0488281 199.336914,28.0488281 C197.74576,28.0488281 196.336595,28.5947211 195.109375,29.6865234 C193.882155,30.7783258 193.268555,32.162101 193.268555,33.8378906 Z M217.592773,38.1542969 L224.34668,38.1542969 C224.380534,38.8821651 224.744463,39.5296196 225.438477,40.0966797 C226.13249,40.6637398 226.961909,40.9472656 227.926758,40.9472656 C228.756189,40.9134113 229.458656,40.71452 230.03418,40.3505859 C230.609703,39.9866518 230.897461,39.5084665 230.897461,38.9160156 C230.897461,38.3912734 230.719728,37.9723323 230.364258,37.6591797 C230.008787,37.3460271 229.390955,37.0794282 228.510742,36.859375 L225.336914,36.0214844 C223.948886,35.6490867 222.764002,35.1835965 221.782227,34.625 C220.800451,34.0664035 220.072594,33.5374374 219.598633,33.0380859 C219.124672,32.5387345 218.760743,31.9462925 218.506836,31.2607422 C218.252928,30.5751919 218.10905,30.0292989 218.075195,29.6230469 C218.041341,29.2167948 218.032878,28.7089874 218.049805,28.0996094 C218.083659,26.2884024 219.04003,24.6845773 220.918945,23.2880859 C222.797861,21.8915946 224.99836,21.1933594 227.520508,21.1933594 C228.519211,21.1933594 229.479813,21.2822257 230.402344,21.4599609 C231.324874,21.6376962 232.222001,21.9296855 233.09375,22.3359375 C233.965499,22.7421895 234.718747,23.249997 235.353516,23.859375 C235.988284,24.468753 236.500324,25.2346959 236.889648,26.1572266 C237.278973,27.0797572 237.482096,28.1165307 237.499023,29.2675781 L230.694336,29.2675781 C230.660482,27.845696 229.737965,27.1347656 227.926758,27.1347656 C227.148108,27.1347656 226.526044,27.299803 226.060547,27.6298828 C225.59505,27.9599626 225.370768,28.3958306 225.387695,28.9375 C225.455404,29.8177127 226.166334,30.4270816 227.520508,30.765625 L231.633789,31.8574219 C232.750982,32.1621109 233.728511,32.5641251 234.566406,33.0634766 C235.404301,33.562828 236.047524,34.0664037 236.496094,34.5742188 C236.944664,35.0820338 237.308592,35.6321585 237.587891,36.2246094 C237.867189,36.8170603 238.044921,37.3206359 238.121094,37.7353516 C238.197266,38.1500672 238.235352,38.5436179 238.235352,38.9160156 C238.235352,40.1516989 237.930667,41.2688752 237.321289,42.2675781 C236.711911,43.266281 235.899419,44.0660777 234.883789,44.6669922 C233.868159,45.2679067 232.746751,45.7249333 231.519531,46.0380859 C230.292312,46.3512385 229.027025,46.5078125 227.723633,46.5078125 C226.72493,46.5078125 225.743169,46.3935558 224.77832,46.1650391 C223.813472,45.9365223 222.899418,45.5895206 222.036133,45.1240234 C221.172847,44.6585263 220.411136,44.0999382 219.750977,43.4482422 C219.090817,42.7965462 218.570314,42.0136764 218.189453,41.0996094 C217.808592,40.1855423 217.609701,39.2037813 217.592773,38.1542969 Z M241.866211,38.1542969 L248.620117,38.1542969 C248.653972,38.8821651 249.0179,39.5296196 249.711914,40.0966797 C250.405928,40.6637398 251.235347,40.9472656 252.200195,40.9472656 C253.029627,40.9134113 253.732093,40.71452 254.307617,40.3505859 C254.883141,39.9866518 255.170898,39.5084665 255.170898,38.9160156 C255.170898,38.3912734 254.993166,37.9723323 254.637695,37.6591797 C254.282225,37.3460271 253.664392,37.0794282 252.78418,36.859375 L249.610352,36.0214844 C248.222324,35.6490867 247.03744,35.1835965 246.055664,34.625 C245.073888,34.0664035 244.346031,33.5374374 243.87207,33.0380859 C243.39811,32.5387345 243.034181,31.9462925 242.780273,31.2607422 C242.526366,30.5751919 242.382487,30.0292989 242.348633,29.6230469 C242.314778,29.2167948 242.306315,28.7089874 242.323242,28.0996094 C242.357097,26.2884024 243.313467,24.6845773 245.192383,23.2880859 C247.071298,21.8915946 249.271797,21.1933594 251.793945,21.1933594 C252.792648,21.1933594 253.753251,21.2822257 254.675781,21.4599609 C255.598312,21.6376962 256.495438,21.9296855 257.367188,22.3359375 C258.238937,22.7421895 258.992184,23.249997 259.626953,23.859375 C260.261722,24.468753 260.773761,25.2346959 261.163086,26.1572266 C261.552411,27.0797572 261.755534,28.1165307 261.772461,29.2675781 L254.967773,29.2675781 C254.933919,27.845696 254.011402,27.1347656 252.200195,27.1347656 C251.421546,27.1347656 250.799481,27.299803 250.333984,27.6298828 C249.868487,27.9599626 249.644206,28.3958306 249.661133,28.9375 C249.728841,29.8177127 250.439772,30.4270816 251.793945,30.765625 L255.907227,31.8574219 C257.02442,32.1621109 258.001949,32.5641251 258.839844,33.0634766 C259.677739,33.562828 260.320961,34.0664037 260.769531,34.5742188 C261.218101,35.0820338 261.58203,35.6321585 261.861328,36.2246094 C262.140626,36.8170603 262.318359,37.3206359 262.394531,37.7353516 C262.470704,38.1500672 262.508789,38.5436179 262.508789,38.9160156 C262.508789,40.1516989 262.204105,41.2688752 261.594727,42.2675781 C260.985349,43.266281 260.172857,44.0660777 259.157227,44.6669922 C258.141596,45.2679067 257.020188,45.7249333 255.792969,46.0380859 C254.565749,46.3512385 253.300462,46.5078125 251.99707,46.5078125 C250.998367,46.5078125 250.016606,46.3935558 249.051758,46.1650391 C248.086909,45.9365223 247.172856,45.5895206 246.30957,45.1240234 C245.446285,44.6585263 244.684574,44.0999382 244.024414,43.4482422 C243.364255,42.7965462 242.843752,42.0136764 242.462891,41.0996094 C242.082029,40.1855423 241.883138,39.2037813 241.866211,38.1542969 Z" id="getpass.xyz" fill="#000000"></path>
            <path d="M267.993164,43.8164062 C267.993164,43.0546837 268.27669,42.411461 268.84375,41.8867188 C269.41081,41.3619765 270.083655,41.0996094 270.862305,41.0996094 C271.640954,41.0996094 272.313799,41.3619765 272.880859,41.8867188 C273.44792,42.411461 273.731445,43.0546837 273.731445,43.8164062 C273.731445,44.5781288 273.44792,45.2171198 272.880859,45.7333984 C272.313799,46.2496771 271.640954,46.5078125 270.862305,46.5078125 C270.083655,46.5078125 269.41081,46.2496771 268.84375,45.7333984 C268.27669,45.2171198 267.993164,44.5781288 267.993164,43.8164062 Z" id="Path" fill="#9B9B9B"></path>
            <polygon id="Path" fill="#9B9B9B" points="278.250977 46 287.924805 32.6445312 280.00293 21.7265625 284.268555 21.7265625 290.006836 29.7246094 295.770508 21.7265625 300.036133 21.7265625 292.139648 32.6445312 301.788086 46 297.598633 46 290.006836 35.5390625 282.415039 46"></polygon>
            <polygon id="Path" fill="#9B9B9B" points="303.819336 21.7265625 307.475586 21.7265625 315.676758 41.4804688 323.954102 21.7265625 327.635742 21.7265625 312.553711 57.7558594 308.973633 57.7558594 313.797852 45.9492188"></polygon>
            <polygon id="Path" fill="#9B9B9B" points="330.961914 46 330.961914 42.8261719 347.084961 25.1542969 331.850586 25.1542969 331.850586 21.7265625 352.010742 21.7265625 352.010742 24.8242188 335.633789 42.5722656 352.010742 42.5722656 352.010742 46"></polygon>
        </g>
    </g>
</svg>